<?xml version="1.0" encoding="utf-8"?>
<!-- Generator: Adobe Illustrator 15.1.0, SVG Export Plug-In . SVG Version: 6.00 Build 0)  -->
<!DOCTYPE svg PUBLIC "-//W3C//DTD SVG 1.1//EN" "http://www.w3.org/Graphics/SVG/1.1/DTD/svg11.dtd">
<svg version="1.1" id="Layer_1" xmlns="http://www.w3.org/2000/svg" xmlns:xlink="http://www.w3.org/1999/xlink" x="0px" y="0px"
	 width="294px" height="609px" viewBox="177 87 294 609" style="enable-background:new 177 87 294 609;" xml:space="preserve">
<style type="text/css">
	.st0{fill:#808285;}

	.st2{fill:#262262;}
	.st3{fill:#939598;}
	.st4{fill:#FFFFFF;stroke:#939598;stroke-width:3;stroke-linejoin:round;stroke-miterlimit:10;}

	.st6{fill:#FFFFFF;}
	.st7{fill:#D1D3D4;}
	.st8{fill:#D1D3D4;stroke:#939598;stroke-width:3;stroke-linejoin:round;stroke-miterlimit:10;}
</style>
<g>
	<path class="st0" d="M225,379.5c-0.398,0-0.779-0.158-1.061-0.439l-9-9c-0.281-0.281-0.439-0.663-0.439-1.061V252
		c0-0.829,0.671-1.5,1.5-1.5h216c0.828,0,1.5,0.671,1.5,1.5v117c0,0.398-0.158,0.779-0.439,1.061l-9,9
		c-0.28,0.281-0.662,0.439-1.061,0.439H225z"/>
	<path class="st3" d="M432,252v117l-9,9H243h-18l-9-9V252H432 M432,249H216c-1.657,0-3,1.343-3,3v117
		c0,0.795,0.316,1.559,0.879,2.121l9,9c0.562,0.563,1.326,0.879,2.121,0.879h18h180c0.796,0,1.559-0.316,2.121-0.879l9-9
		c0.562-0.562,0.879-1.326,0.879-2.121V252C435,250.343,433.657,249,432,249L432,249z"/>
</g>
<g>
	<path class="st6" d="M234,199.5c-0.568,0-1.087-0.321-1.342-0.829l-36-72c-0.232-0.465-0.208-1.017,0.066-1.459
		S197.48,124.5,198,124.5h27c0.568,0,1.087,0.321,1.342,0.829l8.585,17.171h178.146l8.585-17.171
		c0.254-0.508,0.772-0.829,1.342-0.829h27c0.52,0,1.003,0.269,1.276,0.711c0.271,0.442,0.298,0.995,0.064,1.459l-36,72
		c-0.254,0.508-0.772,0.829-1.342,0.829L234,199.5L234,199.5z"/>
	<path class="st3" d="M450,126l-36,72H234l-36-72h27l9,18h180l9-18H450 M450,123h-27c-1.137,0-2.175,0.642-2.684,1.658L412.146,141
		H235.854l-8.171-16.342C227.175,123.642,226.136,123,225,123h-27c-1.04,0-2.005,0.539-2.552,1.423
		c-0.547,0.884-0.597,1.989-0.131,2.919l36,72c0.508,1.016,1.547,1.658,2.683,1.658h180c1.137,0,2.175-0.642,2.684-1.658l36-72
		c0.466-0.93,0.415-2.035-0.132-2.919C452.005,123.539,451.04,123,450,123L450,123z"/>
</g>
<g>
	<path class="accent" d="M243,199.5c-0.568,0-1.087-0.321-1.342-0.829l-36-72c-0.232-0.465-0.208-1.017,0.066-1.459
		S206.48,124.5,207,124.5h9c0.568,0,1.087,0.321,1.342,0.829l26.585,53.171h160.146l26.585-53.171
		c0.254-0.508,0.772-0.829,1.342-0.829h9c0.52,0,1.003,0.269,1.276,0.711c0.271,0.442,0.298,0.995,0.064,1.459l-36,72
		c-0.254,0.508-0.772,0.829-1.342,0.829L243,199.5L243,199.5z"/>
	<path class="st3" d="M441,126l-36,72H243l-36-72h9l27,54h162l27-54H441 M441,123h-9c-1.137,0-2.175,0.642-2.684,1.658L403.146,177
		H244.854l-26.171-52.342C218.175,123.642,217.136,123,216,123h-9c-1.04,0-2.005,0.539-2.552,1.423
		c-0.547,0.884-0.597,1.989-0.131,2.919l36,72c0.508,1.016,1.547,1.658,2.683,1.658h162c1.137,0,2.175-0.642,2.684-1.658l36-72
		c0.466-0.93,0.415-2.035-0.132-2.919C443.005,123.539,442.04,123,441,123L441,123z"/>
</g>
<g>
	<path class="st6" d="M234,532.5c-0.67,0-1.258-0.444-1.442-1.088l-54-189c-0.149-0.524-0.003-1.087,0.382-1.473l9-9
		c0.281-0.281,0.663-0.439,1.061-0.439h270c0.397,0,0.779,0.158,1.062,0.439l9,9c0.386,0.385,0.53,0.949,0.382,1.473l-54,189
		c-0.185,0.644-0.772,1.088-1.442,1.088H234z"/>
	<path class="st3" d="M459,333l9,9l-54,189H234l-54-189l9-9H459 M459,330H189c-0.795,0-1.559,0.316-2.121,0.879l-9,9
		c-0.771,0.77-1.063,1.897-0.764,2.945l54,189C231.483,533.112,232.66,534,234,534h180c1.34,0,2.517-0.888,2.885-2.176l54-189
		c0.299-1.048,0.007-2.175-0.764-2.945l-9-9C460.559,330.316,459.796,330,459,330L459,330z"/>
</g>
<polygon class="st8" points="207,342 441,342 450,351 405,522 243,522 198,351 "/>
<polyline class="st4" points="396,549 405,540 405,99 396,90 252,90 243,99 243,540 252,549 "/>
<g>
	<path class="st6" d="M360,694.5c-0.393,0-0.775-0.154-1.061-0.439l-8.562-8.561H297.62l-8.561,8.561
		c-0.285,0.285-0.668,0.439-1.061,0.439c-0.134,0-0.268-0.018-0.4-0.055c-0.521-0.145-0.924-0.559-1.055-1.081l-36-144
		c-0.112-0.448-0.012-0.923,0.273-1.287c0.284-0.364,0.72-0.577,1.182-0.577h144c0.462,0,0.898,0.213,1.183,0.577
		c0.285,0.364,0.386,0.839,0.272,1.287l-36,144c-0.131,0.522-0.534,0.938-1.055,1.081C360.269,694.482,360.134,694.5,360,694.5z"/>
	<path class="st3" d="M396,549l-36,144l-9-9h-54l-9,9l-36-144H396 M396,546H252c-0.924,0-1.796,0.426-2.365,1.153
		c-0.568,0.729-0.77,1.678-0.546,2.573l36,144c0.262,1.05,1.068,1.875,2.11,2.164c0.264,0.073,0.534,0.108,0.801,0.108
		c0.785,0,1.551-0.31,2.121-0.879l8.122-8.121h51.515l8.121,8.121c0.57,0.569,1.336,0.879,2.121,0.879
		c0.268,0,0.536-0.035,0.801-0.108c1.042-0.289,1.849-1.114,2.109-2.164l36-144c0.225-0.896,0.022-1.846-0.546-2.573
		S396.924,546,396,546L396,546z"/>
</g>
<g>
	<path class="accent" d="M351,550.5c-0.828,0-1.5-0.672-1.5-1.5V90c0-0.829,0.672-1.5,1.5-1.5h18c0.828,0,1.5,0.671,1.5,1.5v459
		c0,0.828-0.672,1.5-1.5,1.5H351z"/>
	<path class="st3" d="M369,90v459h-18V90H369 M369,87h-18c-1.657,0-3,1.343-3,3v459c0,1.657,1.343,3,3,3h18c1.657,0,3-1.343,3-3V90
		C372,88.343,370.657,87,369,87L369,87z"/>
</g>
<g>
	<path class="accent" d="M360,694.5c-0.393,0-0.775-0.154-1.061-0.439l-9-9c-0.281-0.28-0.439-0.662-0.439-1.061V549
		c0-0.828,0.672-1.5,1.5-1.5h18c0.828,0,1.5,0.672,1.5,1.5v108c0,0.123-0.015,0.245-0.045,0.364l-9,36
		c-0.131,0.522-0.534,0.938-1.055,1.081C360.269,694.482,360.134,694.5,360,694.5z"/>
	<path class="st3" d="M369,549v108l-9,36l-9-9V549H369 M369,546h-18c-1.657,0-3,1.343-3,3v135c0,0.796,0.316,1.559,0.879,2.121l9,9
		c0.57,0.57,1.336,0.879,2.121,0.879c0.268,0,0.536-0.035,0.801-0.108c1.042-0.288,1.849-1.114,2.109-2.163l9-36
		c0.06-0.238,0.09-0.482,0.09-0.729V549C372,547.343,370.657,546,369,546L369,546z"/>
</g>
<g>
	<path class="st6" d="M279,550.5c-0.829,0-1.5-0.672-1.5-1.5V90c0-0.829,0.671-1.5,1.5-1.5h18c0.829,0,1.5,0.671,1.5,1.5v459
		c0,0.828-0.671,1.5-1.5,1.5H279z"/>
	<path class="st3" d="M297,90v459h-18V90H297 M297,87h-18c-1.657,0-3,1.343-3,3v459c0,1.657,1.343,3,3,3h18c1.657,0,3-1.343,3-3V90
		C300,88.343,298.657,87,297,87L297,87z"/>
</g>
<g>
	<path class="primary" d="M360,514.5c-20.678,0-37.5-16.822-37.5-37.5s16.822-37.5,37.5-37.5s37.5,16.822,37.5,37.5
		S380.678,514.5,360,514.5z"/>
	<path class="st3" d="M360,441c19.882,0,36,16.117,36,36c0,19.882-16.118,36-36,36c-19.883,0-36-16.118-36-36
		C324,457.117,340.117,441,360,441 M360,438c-21.505,0-39,17.495-39,39s17.495,39,39,39s39-17.495,39-39S381.505,438,360,438
		L360,438z"/>
</g>
<g>
	<path class="st7" d="M288,694.5c-0.606,0-1.154-0.365-1.386-0.926c-0.232-0.562-0.104-1.206,0.325-1.635l9-9
		c0.281-0.281,0.663-0.439,1.061-0.439h54c0.397,0,0.779,0.158,1.061,0.439l9,9c0.43,0.429,0.559,1.073,0.325,1.635
		c-0.232,0.561-0.779,0.926-1.386,0.926H288z"/>
	<path class="st3" d="M351,684l9,9h-72l9-9H351 M351,681h-54c-0.796,0-1.559,0.316-2.121,0.879l-9,9
		c-0.858,0.857-1.115,2.148-0.65,3.271S286.787,696,288,696h72c1.213,0,2.308-0.73,2.771-1.852c0.465-1.121,0.207-2.412-0.65-3.271
		l-9-9C352.559,681.316,351.796,681,351,681L351,681z"/>
</g>
<g>
	<path class="st2" d="M279,622.5c-0.688,0-1.288-0.469-1.455-1.136l-9-36c-0.112-0.448-0.012-0.923,0.273-1.287
		c0.284-0.364,0.72-0.577,1.182-0.577h108c0.462,0,0.898,0.213,1.183,0.577c0.285,0.364,0.386,0.839,0.272,1.287l-9,36
		c-0.167,0.667-0.767,1.136-1.455,1.136H279z"/>
	<path class="st3" d="M378,585l-9,36h-90l-9-36H378 M378,582H270c-0.924,0-1.796,0.426-2.365,1.153
		c-0.568,0.729-0.77,1.678-0.546,2.573l9,36c0.334,1.336,1.534,2.272,2.911,2.272h90c1.377,0,2.576-0.938,2.91-2.272l9-36
		c0.225-0.896,0.022-1.846-0.546-2.573S378.924,582,378,582L378,582z"/>
</g>
<g>
	<path class="accent" d="M243,451.5c-0.193,0-0.388-0.037-0.574-0.114c-0.561-0.231-0.926-0.778-0.926-1.386v-72
		c0-0.606,0.365-1.154,0.926-1.386c0.186-0.077,0.381-0.114,0.574-0.114c0.391,0,0.774,0.152,1.061,0.439l9,9
		c0.281,0.281,0.439,0.663,0.439,1.061v54c0,0.397-0.158,0.779-0.439,1.061l-9,9C243.774,451.348,243.39,451.5,243,451.5z"/>
	<path class="st3" d="M243,378l9,9v54l-9,9V378 M243,375c-0.387,0-0.776,0.075-1.147,0.229C240.731,375.693,240,376.787,240,378v72
		c0,1.213,0.731,2.308,1.852,2.771c0.371,0.153,0.761,0.229,1.147,0.229c0.781,0,1.548-0.305,2.122-0.879l9-9
		c0.563-0.562,0.879-1.325,0.879-2.121v-54c0-0.796-0.316-1.559-0.879-2.121l-9-9C244.547,375.305,243.78,375,243,375L243,375z"/>
</g>
<g>
	<path class="accent" d="M405,451.5c-0.39,0-0.773-0.152-1.061-0.439l-9-9c-0.281-0.28-0.439-0.662-0.439-1.061v-54
		c0-0.398,0.158-0.779,0.439-1.061l9-9c0.286-0.287,0.671-0.439,1.061-0.439c0.193,0,0.389,0.037,0.574,0.114
		c0.561,0.232,0.926,0.779,0.926,1.386v72c0,0.606-0.365,1.153-0.926,1.386C405.389,451.463,405.193,451.5,405,451.5z"/>
	<path class="st3" d="M405,378v72l-9-9v-54L405,378 M405.001,375c-0.781,0-1.548,0.305-2.122,0.879l-9,9
		C393.316,385.441,393,386.204,393,387v54c0,0.796,0.316,1.559,0.879,2.121l9,9c0.573,0.574,1.341,0.879,2.122,0.879
		c0.386,0,0.776-0.074,1.147-0.229C407.27,452.308,408,451.213,408,450v-72c0-1.213-0.73-2.307-1.852-2.771
		C405.777,375.075,405.387,375,405.001,375L405.001,375z"/>
</g>
</svg>
