<?xml version="1.0" encoding="utf-8"?>
<!-- Generator: Adobe Illustrator 15.1.0, SVG Export Plug-In . SVG Version: 6.00 Build 0)  -->
<!DOCTYPE svg PUBLIC "-//W3C//DTD SVG 1.1//EN" "http://www.w3.org/Graphics/SVG/1.1/DTD/svg11.dtd">
<svg version="1.1" id="Layer_1" xmlns="http://www.w3.org/2000/svg" xmlns:xlink="http://www.w3.org/1999/xlink" x="0px" y="0px"
	 width="704.277px" height="169.741px" viewBox="0 0 704.277 169.741" enable-background="new 0 0 704.277 169.741"
	 xml:space="preserve">
<g>
	<g>
		<path fill="#231F20" d="M543.36,16.727l72.557,72.557L543.36,161.84l-72.556-72.557L543.36,16.727 M543.36,8.824l-80.458,80.459
			l80.458,80.458l80.458-80.458L543.36,8.824L543.36,8.824z"/>
		<path fill="#231F20" d="M623.818,16.727l72.557,72.557l-72.557,72.557l-72.557-72.557L623.818,16.727 M623.818,8.824
			L543.36,89.283l80.458,80.458l80.459-80.458L623.818,8.824L623.818,8.824z"/>
	</g>
	<g>
		<path fill="#231F20" d="M51.579,26.642c1.834-8.132-1.701-14.658-11.651-14.658c-11.769,0-18.47,17.44-20.766,28.245
			c-2.297,10.807-3.007,28.246,8.762,28.246c9.951,0,16.259-6.526,17.88-14.657h17.654c-4.864,19.366-20.319,26.641-38.08,26.641
			c-22.361,0-28.667-17.654-23.87-40.229C6.305,17.654,20.114,0,42.475,0c17.761,0,30.124,7.277,26.758,26.642H51.579z"/>
		<path fill="#231F20" d="M64.121,78.853L80.537,1.604H97.12l-6.479,30.494h29.208l6.48-30.494h16.796l-16.414,77.249h-16.584
			l7.207-33.916H87.912l-7.207,33.916H64.121z"/>
		<path fill="#231F20" d="M150.179,1.604h51.784l-2.729,12.84h-35.2l-3.842,18.082h32.953l-2.729,12.839h-32.953l-4.388,20.648
			h36.377l-2.728,12.839h-52.96L150.179,1.604z"/>
		<path fill="#231F20" d="M219.578,34.986h0.214l32.772-33.382h19.365l-35.697,34.56l21.743,42.689h-20.649L218.838,39.48h-0.214
			l-8.366,39.373h-16.584l16.415-77.249h16.583L219.578,34.986z"/>
		<path fill="#231F20" d="M260.963,78.853l16.415-77.249h16.583l-6.479,30.494h29.208l6.48-30.494h16.797l-16.415,77.249H306.97
			l7.207-33.916h-29.422l-7.207,33.916H260.963z"/>
		<path fill="#231F20" d="M337.102,40.229C341.944,17.44,357.205,0,382.777,0c25.569,0,33.42,17.44,28.577,40.229
			c-4.843,22.79-20.104,40.229-45.675,40.229C340.109,80.458,332.26,63.018,337.102,40.229z M354.756,40.229
			c-2.82,13.268-2.899,28.246,13.471,28.246c16.369,0,22.654-14.978,25.474-28.246c2.819-13.267,2.899-28.245-13.47-28.245
			C363.86,11.984,357.575,26.962,354.756,40.229z"/>
		<path fill="#231F20" d="M416.665,1.604h18.082l7.178,60.879h0.214l33.158-60.879h16.369l-44.874,77.249H428.71L416.665,1.604z"/>
	</g>
	<g>
		<path fill="#231F20" d="M74.257,97.69l19.203,61.621h-5.718l-4.95-16.217H58.639l-4.865,16.217h-5.462L67.771,97.69H74.257z
			 M81.341,138.486l-10.497-34.822h-0.171L60.26,138.486H81.341z"/>
		<path fill="#231F20" d="M102.512,129.439v29.872h-5.462V97.69h16.984c11.864,0,14.851,3.926,14.851,14.766
			c0,7.682-1.281,12.801-9.559,14.68v0.171c8.62,1.792,9.132,2.816,9.132,24.836c0,2.389,0.427,4.78,0.597,7.169h-5.206
			c-0.512-1.793-0.768-12.035-0.854-15.362c-0.085-2.646,1.707-14.51-10.156-14.51H102.512z M102.512,124.831h8.876
			c8.194,0,12.034-2.135,12.034-12.461c0-8.449-3.328-10.07-9.73-10.07h-11.181V124.831z"/>
		<path fill="#231F20" d="M136.57,159.312V97.69h9.302l18.18,55.646h0.17l17.923-55.646h8.706v61.621h-5.462v-56.33h-0.171
			l-18.093,56.33h-6.315l-18.606-56.33h-0.171v56.33H136.57z"/>
		<path fill="#231F20" d="M220.559,97.69l19.203,61.621h-5.718l-4.95-16.217h-24.152l-4.865,16.217h-5.462l19.459-61.621H220.559z
			 M227.643,138.486l-10.497-34.822h-0.171l-10.413,34.822H227.643z"/>
		<path fill="#231F20" d="M243.607,159.312V97.69h9.303l18.18,55.646h0.17l17.923-55.646h8.706v61.621h-5.462v-56.33h-0.171
			l-18.093,56.33h-6.316l-18.605-56.33h-0.171v56.33H243.607z"/>
		<path fill="#231F20" d="M334.852,97.69v4.609h-22.447v23.043h21.422v4.608h-21.422v24.752h23.044v4.608h-28.507V97.69H334.852z"/>
		<path fill="#231F20" d="M341.596,159.312V97.69h8.364l25.006,54.11l0.171-0.171V97.69h5.462v61.621h-8.278l-25.092-54.708
			l-0.171,0.172v54.536H341.596z"/>
		<path fill="#231F20" d="M399.978,102.3h-15.021V97.69h35.505v4.609h-15.021v57.012h-5.462V102.3z"/>
		<path fill="#231F20" d="M448.714,113.309c-0.171-7.595-2.048-12.205-10.412-12.205c-6.657,0-10.84,2.305-10.84,9.561
			c0,9.131,4.609,9.387,11.608,14.423c7.596,5.463,15.362,7.083,15.362,19.032c0,11.01-5.634,16.387-16.387,16.387
			c-12.034,0-17.411-6.486-16.899-18.52h5.633c0,6.827,0.513,13.911,11.522,13.911c7.17,0,10.669-3.841,10.669-10.925
			c0-8.364-5.549-10.754-14.425-16.216c-11.948-7.339-12.461-11.01-12.546-17.155c-0.085-10.668,6.657-15.105,16.728-15.105
			c12.804,0,15.534,7.937,15.534,16.812H448.714z"/>
	</g>
</g>
</svg>
